<svg width="21" height="20" viewBox="0 0 21 20" fill="none" xmlns="http://www.w3.org/2000/svg">
<path fill-rule="evenodd" clip-rule="evenodd" d="M12.1125 1.36104C11.1812 0.574966 9.8188 0.574967 8.88749 1.36104L8.03932 2.07692C7.64349 2.41102 7.15365 2.61394 6.6375 2.65759L5.53155 2.75111C4.31717 2.85381 3.35381 3.81717 3.25111 5.03155L3.15759 6.1375C3.11394 6.65365 2.91102 7.14349 2.57692 7.53934L1.86104 8.38749C1.07497 9.3188 1.07497 10.6812 1.86104 11.6125L2.57692 12.4607C2.91102 12.8565 3.11394 13.3464 3.15759 13.8625L3.25111 14.9685C3.35381 16.1829 4.31717 17.1462 5.53155 17.2489L6.6375 17.3424C7.15365 17.3861 7.64349 17.589 8.03934 17.9231L8.88749 18.639C9.8188 19.425 11.1812 19.425 12.1125 18.639L12.9607 17.9231C13.3565 17.589 13.8464 17.3861 14.3625 17.3424L15.4685 17.2489C16.6829 17.1462 17.6462 16.1829 17.7489 14.9685L17.8424 13.8625C17.8861 13.3464 18.089 12.8565 18.4231 12.4607L19.139 11.6125C19.925 10.6812 19.925 9.3188 19.139 8.38749L18.4231 7.53932C18.089 7.14349 17.8861 6.65365 17.8424 6.1375L17.7489 5.03155C17.6462 3.81717 16.6829 2.85381 15.4685 2.75111L14.3625 2.65759C13.8464 2.61394 13.3565 2.41102 12.9607 2.07692L12.1125 1.36104ZM15.046 8.29555C15.4854 7.85621 15.4854 7.1439 15.046 6.70456C14.6067 6.26521 13.8944 6.26521 13.455 6.70456L9.25054 10.9091L7.54604 9.20456C7.1067 8.76521 6.39439 8.76521 5.95505 9.20456C5.5157 9.6439 5.5157 10.3562 5.95505 10.7956L8.45505 13.2955C8.89439 13.7349 9.6067 13.7349 10.046 13.2955L15.046 8.29555Z" fill="#FF0048"/>
</svg>
