<svg width="24" height="24" viewBox="0 0 24 24" fill="none" xmlns="http://www.w3.org/2000/svg">
<path d="M11.9998 1.79999C9.98244 1.79999 8.01037 2.39821 6.33299 3.519C4.65561 4.63979 3.34825 6.23281 2.57624 8.09662C1.80422 9.96043 1.60223 12.0113 1.9958 13.9899C2.38937 15.9685 3.36082 17.786 4.78732 19.2125C6.21382 20.639 8.03128 21.6104 10.0099 22.004C11.9885 22.3976 14.0394 22.1956 15.9032 21.4236C17.767 20.6515 19.36 19.3442 20.4808 17.6668C21.6016 15.9894 22.1998 14.0174 22.1998 12C22.2009 10.6602 21.9378 9.33333 21.4256 8.09531C20.9134 6.85729 20.1621 5.73242 19.2148 4.78504C18.2674 3.83766 17.1425 3.08638 15.9045 2.57417C14.6665 2.06196 13.3396 1.79889 11.9998 1.79999ZM11.9998 19.8C10.4571 19.8 8.94906 19.3425 7.66636 18.4855C6.38366 17.6284 5.38391 16.4102 4.79355 14.9849C4.20319 13.5597 4.04872 11.9913 4.34968 10.4783C4.65065 8.96524 5.39353 7.57541 6.48438 6.48456C7.57523 5.39371 8.96505 4.65083 10.4781 4.34987C11.9912 4.0489 13.5595 4.20337 14.9847 4.79373C16.41 5.38409 17.6282 6.38384 18.4853 7.66654C19.3423 8.94925 19.7998 10.4573 19.7998 12C19.8019 13.0249 19.6015 14.0401 19.2103 14.9874C18.819 15.9346 18.2445 16.7953 17.5198 17.52C16.7951 18.2447 15.9344 18.8192 14.9872 19.2104C14.0399 19.6017 13.0247 19.802 11.9998 19.8Z" fill="black"/>
<path d="M15.4203 8.88002C15.3119 8.76632 15.1816 8.67579 15.0372 8.61394C14.8928 8.55209 14.7374 8.5202 14.5803 8.5202C14.4232 8.5202 14.2678 8.55209 14.1234 8.61394C13.979 8.67579 13.8487 8.76632 13.7403 8.88002L12.0003 10.62L10.3203 8.94002C10.0967 8.72095 9.79578 8.59894 9.48278 8.60052C9.16979 8.6021 8.87006 8.72714 8.64874 8.94847C8.42741 9.16979 8.30238 9.46951 8.3008 9.78251C8.29922 10.0955 8.42122 10.3965 8.6403 10.62L10.3203 12.3L8.6403 13.98C8.42122 14.2036 8.29922 14.5045 8.3008 14.8175C8.30238 15.1305 8.42741 15.4303 8.64874 15.6516C8.87006 15.8729 9.16979 15.9979 9.48278 15.9995C9.79578 16.0011 10.0967 15.8791 10.3203 15.66L12.0003 13.98L13.6803 15.66C13.9038 15.8791 14.2048 16.0011 14.5178 15.9995C14.8308 15.9979 15.1305 15.8729 15.3519 15.6516C15.5732 15.4303 15.6982 15.1305 15.6998 14.8175C15.7014 14.5045 15.5794 14.2036 15.3603 13.98L13.6803 12.3L15.3603 10.62C15.5853 10.3896 15.7161 10.0835 15.7272 9.76164C15.7383 9.43979 15.6289 9.12539 15.4203 8.88002Z" fill="black"/>
</svg>
