<svg width="12" height="12" viewBox="0 0 12 12" fill="none" xmlns="http://www.w3.org/2000/svg">
<path d="M6.41958 0.934295L7.78243 3.68572C7.81343 3.75556 7.86219 3.81605 7.92385 3.86117C7.98551 3.90629 8.05792 3.93446 8.13386 3.94287L11.1424 4.38858C11.2295 4.39978 11.3117 4.43553 11.3792 4.49166C11.4468 4.54779 11.497 4.62198 11.5239 4.70556C11.5509 4.78915 11.5535 4.87868 11.5315 4.96371C11.5095 5.04873 11.4637 5.12573 11.3996 5.18572L9.231 7.33715C9.17566 7.38886 9.13412 7.45359 9.11017 7.52544C9.08621 7.5973 9.08061 7.67401 9.09386 7.74858L9.61672 10.7743C9.63186 10.8612 9.62229 10.9507 9.5891 11.0325C9.55591 11.1142 9.50044 11.185 9.42899 11.2368C9.35754 11.2886 9.27299 11.3193 9.18495 11.3255C9.09692 11.3316 9.00893 11.3129 8.931 11.2714L6.22243 9.84001C6.15308 9.80596 6.07684 9.78826 5.99958 9.78826C5.92231 9.78826 5.84608 9.80596 5.77672 9.84001L3.06815 11.2714C2.99022 11.3129 2.90224 11.3316 2.8142 11.3255C2.72616 11.3193 2.64161 11.2886 2.57016 11.2368C2.49871 11.185 2.44324 11.1142 2.41005 11.0325C2.37686 10.9507 2.36729 10.8612 2.38243 10.7743L2.90529 7.71429C2.91854 7.63972 2.91294 7.56302 2.88898 7.49116C2.86503 7.4193 2.82349 7.35458 2.76815 7.30287L0.573861 5.18572C0.508943 5.12409 0.463289 5.04496 0.44243 4.95791C0.421571 4.87086 0.426401 4.77963 0.456335 4.69527C0.48627 4.6109 0.540024 4.53703 0.611087 4.4826C0.68215 4.42817 0.767472 4.39551 0.856718 4.38858L3.86529 3.94287C3.94123 3.93446 4.01364 3.90629 4.0753 3.86117C4.13696 3.81605 4.18572 3.75556 4.21672 3.68572L5.57958 0.934295C5.61669 0.85416 5.67595 0.786314 5.75037 0.738767C5.82479 0.691219 5.91126 0.665955 5.99958 0.665955C6.08789 0.665955 6.17436 0.691219 6.24878 0.738767C6.3232 0.786314 6.38246 0.85416 6.41958 0.934295Z" fill="#F9E10B"/>
</svg>
