<svg width="81" height="24" viewBox="0 0 81 24" fill="none" xmlns="http://www.w3.org/2000/svg">
<path d="M0.0766602 7.26782V6.56995L2.93413 6.56997L6.01825 21.5694C6.05038 21.7318 6.11641 21.83 6.37521 21.83C6.63401 21.83 6.70004 21.7318 6.73217 21.5694L9.94655 6.56997H15.4991L18.7135 21.5694C18.7457 21.7318 18.8117 21.83 19.0705 21.83C19.3293 21.83 19.3953 21.7318 19.4274 21.5694L22.5116 6.56997H25.369V7.21963L21.944 23.4542H16.2291L13.0147 8.45471C12.9825 8.29229 12.9165 8.19413 12.722 8.19413C12.5274 8.19413 12.4613 8.29229 12.4292 8.45471L9.21482 23.4542H3.50168L0.0766602 7.26782Z" fill="#3C2110"/>
<path d="M43.063 15.0121C43.063 20.8554 39.1667 23.9414 34.2639 23.9414C29.361 23.9414 25.4648 20.8573 25.4648 15.0121C25.4648 9.16684 29.361 6.0827 34.2639 6.0827C39.1667 6.0827 43.063 9.16684 43.063 15.0121ZM28.4205 15.0121C28.4205 19.0707 30.8549 21.3428 34.2639 21.3428C37.6728 21.3428 40.1074 19.0707 40.1074 15.0121C40.1074 10.9535 37.6728 8.68137 34.2639 8.68137C30.8549 8.68137 28.4205 10.9535 28.4205 15.0121Z" fill="#3C2110"/>
<path d="M44.6857 23.4542V0.0769043H47.6074V9.45958C47.6074 9.58987 47.6717 9.65417 47.8019 9.65417C47.9643 9.65417 48.0286 9.58987 48.1269 9.39355C49.2316 7.21787 51.1788 6.08096 53.9702 6.08096C58.0288 6.08096 62.0875 9.00267 62.0875 15.0103C62.0875 21.0179 58.0288 23.9397 53.9702 23.9397C51.1788 23.9397 49.1656 22.8027 47.9643 20.4004C47.8662 20.2059 47.7698 20.1398 47.6074 20.1398C47.445 20.1398 47.3807 20.238 47.3468 20.3665L46.633 23.4506H44.684L44.6857 23.4542ZM53.2902 21.3446C56.6992 21.3446 59.1354 19.0725 59.1354 15.0139C59.1354 10.9553 56.7009 8.68319 53.2902 8.68319C49.8794 8.68319 47.4468 10.9553 47.4468 15.0139C47.4468 19.0725 49.8813 21.3446 53.2902 21.3446Z" fill="#3C2110"/>
<path d="M80.7889 6.56994V23.4542H77.8672V20.5645C77.8672 20.4342 77.803 20.37 77.6727 20.37C77.5103 20.37 77.446 20.4342 77.3479 20.6305C76.2431 22.8063 74.2958 23.9431 71.5044 23.9431C67.4458 23.9431 63.3872 21.0215 63.3872 15.0138C63.3872 9.00618 67.4458 6.08447 71.5044 6.08447C74.2958 6.08447 76.3091 7.22139 77.5103 9.62372C77.6084 9.8183 77.7048 9.88433 77.8672 9.88433C78.0296 9.88433 78.0939 9.78611 78.1278 9.65763L78.8418 6.5735H80.7908L80.7889 6.56994ZM72.1844 8.67957C68.7754 8.67957 66.341 10.9516 66.341 15.0102C66.341 19.0689 68.7754 21.3409 72.1844 21.3409C75.5934 21.3409 78.0279 19.0689 78.0279 15.0102C78.0279 10.9516 75.5934 8.67957 72.1844 8.67957Z" fill="#3C2110"/>
</svg>
